<mxfile host="app.diagrams.net" modified="2023-12-14T03:14:58.772Z" agent="Mozilla/5.0 (Macintosh; Intel Mac OS X 10_15_7) AppleWebKit/537.36 (KHTML, like Gecko) Chrome/119.0.0.0 Safari/537.36" version="22.1.8" etag="mdaa7P7wsfucKzzBgAkg" type="github">
  <diagram name="Page-1" id="Jg76t7Ro_neB9m3mJSeh">
    <mxGraphModel>
      <root>
        <mxCell id="0" />
        <mxCell id="1" parent="0" />
      </root>
    </mxGraphModel>
  </diagram>
</mxfile>
